<?xml version="1.0" encoding="utf-8"?>
<!-- Generator: Adobe Illustrator 14.0.0, SVG Export Plug-In . SVG Version: 6.00 Build 43363)  -->
<!DOCTYPE svg PUBLIC "-//W3C//DTD SVG 1.1//EN" "http://www.w3.org/Graphics/SVG/1.1/DTD/svg11.dtd">
<svg version="1.1" id="Layer_1" xmlns="http://www.w3.org/2000/svg" xmlns:xlink="http://www.w3.org/1999/xlink" x="0px" y="0px"
	 width="566.93px" height="566.93px" viewBox="0 0 566.93 566.93" enable-background="new 0 0 566.93 566.93" xml:space="preserve">
<g>
	<rect y="0" fill="#F8AF09" width="566.93" height="566.929"/>
	<g>
		<path fill="#1B171B" d="M360.2,177.301c0,0-51.686-6.76-74.748-6.76c-35.788,0-56.462,12.724-56.462,42.944
			c0,36.182,17.892,41.751,64.419,53.679c50.896,13.122,75.541,26.245,75.541,75.146c0,59.646-30.612,83.504-85.883,83.504
			c-30.222,0-84.696-8.35-84.696-8.35l3.181-27.83c0,0,52.886,6.758,81.117,6.758c35.787,0,55.268-14.713,55.268-52.885
			c0-31.014-15.105-38.566-58.051-48.508c-56.859-15.509-81.91-27.039-81.91-80.721c0-51.689,34.593-73.163,87.477-73.163
			c30.616,0,77.538,7.955,77.538,7.955L360.2,177.301z"/>
	</g>
</g>
</svg>
