<?xml version="1.0" encoding="utf-8"?>
<!DOCTYPE svg PUBLIC "-//W3C//DTD SVG 1.1//EN" "http://www.w3.org/Graphics/SVG/1.1/DTD/svg11.dtd">
<svg version="1.1" id="Layer_1" xmlns="http://www.w3.org/2000/svg" xmlns:xlink="http://www.w3.org/1999/xlink" x="0px" y="0px"
	 viewBox="0 0 40 40" enable-background="new 0 0 40 40" xml:space="preserve">
<g>
	<path class="logo" d="M8.2,19.9c0.9,0.8,2.1,1.3,3.4,1.3c1.3,0,3.3-0.6,6.1-1.8c5.3-2.2,8.8-3.3,10.5-3.3c1.7,0,3.2,0.6,4.4,1.9
		c1.3,1.3,2,3.3,2.2,6.1h-1.3c-0.6-3.4-2.3-5-5.1-5c-1.1,0-3.3,0.7-6.7,2c-3.3,1.4-5.5,2.2-6.6,2.5C14.1,23.8,13.1,24,12,24
		c-1.9,0-3.4-0.7-4.8-2.1c-1.3-1.4-2-3.3-2.1-5.9h1.3C6.7,17.8,7.2,19.1,8.2,19.9z"/>
</g>
</svg>
